<?xml version="1.0" encoding="utf-8"?>
<!-- Generator: Adobe Illustrator 19.2.0, SVG Export Plug-In . SVG Version: 6.00 Build 0)  -->
<svg version="1.1" id="Layer_1" xmlns="http://www.w3.org/2000/svg" xmlns:xlink="http://www.w3.org/1999/xlink" x="0px" y="0px"
	 viewBox="0 0 2400 524.6" style="enable-background:new 0 0 2400 524.6;" xml:space="preserve">
<metadata><?xpacket begin="﻿" id="W5M0MpCehiHzreSzNTczkc9d"?>
<x:xmpmeta xmlns:x="adobe:ns:meta/" x:xmptk="Adobe XMP Core 5.6-c111 79.158366, 2015/09/25-01:12:00        ">
   <rdf:RDF xmlns:rdf="http://www.w3.org/1999/02/22-rdf-syntax-ns#">
      <rdf:Description rdf:about=""/>
   </rdf:RDF>
</x:xmpmeta>
                                                                                                    
                                                                                                    
                                                                                                    
                                                                                                    
                                                                                                    
                                                                                                    
                                                                                                    
                                                                                                    
                                                                                                    
                                                                                                    
                                                                                                    
                                                                                                    
                                                                                                    
                                                                                                    
                                                                                                    
                                                                                                    
                                                                                                    
                                                                                                    
                                                                                                    
                                                                                                    
                           
<?xpacket end="w"?></metadata>
<style type="text/css">
	.st0{fill:#CCCCCC;}
	.st1{fill:#999999;}
	.st2{fill:#808080;}
	.st3{fill:#4D4D4D;}
	.st4{fill:#B3B3B3;}
	.st5{fill:#666666;}
	.st6{fill:#333333;}
</style>
<g>
	<g>
		<path class="st0" d="M592.4,191.4h42.7c7.7,0,14.6,0.8,20.9,2.5c6.3,1.6,11.6,4.1,16.1,7.5c4.5,3.3,7.9,7.5,10.3,12.6
			c2.4,5.1,3.6,11,3.6,17.8c0,6.8-1.2,12.8-3.7,17.8c-2.5,5.1-6,9.2-10.5,12.6c-4.5,3.3-9.9,5.9-16.2,7.6c-6.3,1.7-13.3,2.6-21,2.6
			h-26.9v70.2h-15.4V191.4z M607.8,259.2h26c12.1,0,21.3-2.3,27.5-7c6.3-4.7,9.4-11.5,9.4-20.5c0-9.4-3.2-16.2-9.7-20.6
			c-6.5-4.3-15.5-6.5-27.2-6.5h-26V259.2z"/>
		<path class="st0" d="M740,328.8h70.4v13.7h-85.8V191.4H740V328.8z"/>
		<path class="st0" d="M853.8,342.5h-16.9l65.3-151.1h14.9L982,342.5h-17.1l-16.6-39.7h-78.1L853.8,342.5z M875.9,288.7h66.6
			l-33.3-80.2L875.9,288.7z"/>
		<path class="st0" d="M1056.9,342.5h-15.4V205h-50.6v-13.7h116.5V205h-50.6V342.5z"/>
		<path class="st0" d="M1162.5,342.5h-15.4V191.4h91.1V205h-75.7v52.3h70.4V271h-70.4V342.5z"/>
		<path class="st0" d="M1429.2,266.9c0,11.5-2,22.1-6,31.8c-4,9.7-9.5,18-16.5,25.1c-7,7-15.4,12.6-25,16.5c-9.6,4-20,6-31.3,6
			c-11.2,0-21.7-2-31.3-6c-9.6-4-17.9-9.5-25-16.5c-7-7-12.6-15.4-16.5-25.1c-4-9.7-6-20.3-6-31.8c0-11.5,2-22.1,6-31.8
			c4-9.7,9.5-18,16.5-25.1c7-7,15.4-12.6,25-16.5c9.6-4,20-6,31.3-6c11.2,0,21.7,2,31.3,6c9.6,4,17.9,9.5,25,16.5
			c7,7,12.6,15.4,16.5,25.1C1427.2,244.8,1429.2,255.4,1429.2,266.9z M1413,267c0-8.8-1.4-17.2-4.3-25.1c-2.8-7.9-7-14.9-12.4-21
			c-5.4-6-12-10.8-19.7-14.4c-7.8-3.6-16.5-5.3-26.1-5.3s-18.4,1.8-26.1,5.3c-7.8,3.6-14.3,8.3-19.7,14.4c-5.4,6-9.5,13-12.4,21
			c-2.8,8-4.3,16.3-4.3,25.1c0,8.8,1.4,17.2,4.3,25.1c2.8,8,7,14.9,12.4,20.9c5.4,6,12,10.7,19.7,14.3c7.8,3.6,16.5,5.3,26.1,5.3
			s18.4-1.8,26.1-5.3c7.8-3.6,14.3-8.3,19.7-14.3c5.4-6,9.5-12.9,12.4-20.9C1411.6,284.2,1413,275.8,1413,267z"/>
		<path class="st0" d="M1489.4,342.5H1474V191.4h44.4c7.4,0,14.3,0.7,20.6,2.1c6.3,1.4,11.8,3.7,16.4,6.9c4.6,3.2,8.2,7.4,10.8,12.5
			s3.8,11.4,3.8,18.8c0,5.5-1,10.6-3,15.1c-2,4.6-4.7,8.5-8.1,11.8c-3.4,3.3-7.5,6-12.2,8c-4.7,2-9.8,3.3-15.4,3.8l44.2,71.9h-18.8
			l-41.8-70.6h-25.6V342.5z M1489.4,258.6h26.7c12.4,0,21.9-2.2,28.6-6.7c6.7-4.5,10-11.2,10-20.2c0-5-0.9-9.2-2.8-12.6
			c-1.9-3.4-4.4-6.2-7.7-8.3c-3.3-2.1-7.3-3.7-11.9-4.7c-4.7-1-9.9-1.5-15.6-1.5h-27.3V258.6z"/>
		<path class="st0" d="M1697.8,316.4h0.2l50.6-125h23.5v151.1h-15.4V211.2h-0.4l-54.6,131.2h-8.1l-54.6-131.2h-0.4v131.2h-15.4
			V191.4h23.5L1697.8,316.4z"/>
		<path class="st1" d="M1844.6,328.8h70.4v13.7h-85.8V191.4h15.4V328.8z"/>
		<path class="st1" d="M1958.3,342.5h-16.9l65.3-151.1h14.9l64.9,151.1h-17.1l-16.6-39.7h-78.1L1958.3,342.5z M1980.5,288.7h66.6
			l-33.3-80.2L1980.5,288.7z"/>
		<path class="st1" d="M2130.1,191.4h45c5.7,0,11.4,0.6,17.3,1.8c5.8,1.2,11.1,3.3,15.7,6.2c4.6,2.9,8.4,6.9,11.3,11.8
			c2.9,5,4.4,11.2,4.4,18.8c0,8-2.4,14.9-7.3,20.8c-4.9,5.9-11.4,9.8-19.5,11.6v0.4c9.8,1.1,17.9,4.9,24.4,11.4
			c6.5,6.5,9.7,15.3,9.7,26.4c0,6.3-1.3,12-3.9,17.2c-2.6,5.2-6.4,9.6-11.2,13.2c-4.8,3.6-10.7,6.4-17.7,8.4c-7,2-14.8,3-23.4,3
			h-44.7V191.4z M2145.4,257.5h30.9c3.7,0,7.4-0.4,11.2-1.3c3.8-0.9,7.2-2.3,10.3-4.4c3.1-2.1,5.7-4.8,7.6-8.2
			c1.9-3.4,2.9-7.6,2.9-12.6c0-4.8-1-8.9-2.9-12.3c-1.9-3.3-4.5-6.1-7.8-8.2c-3.3-2.1-7.1-3.7-11.5-4.6c-4.4-0.9-9.1-1.4-14.1-1.4
			h-26.7V257.5z M2145.4,329.2h28.6c5.5,0,10.8-0.5,15.9-1.6c5-1.1,9.5-2.8,13.2-5.1c3.8-2.3,6.8-5.4,9.1-9.2
			c2.3-3.8,3.4-8.3,3.4-13.6c0-10-3.4-17.4-10.1-22.3c-6.8-4.9-16.3-7.4-28.7-7.4h-31.4V329.2z"/>
	</g>
	<g>
		<g>
			<polygon class="st1" points="164.9,311.7 164.9,335.1 327.4,412.8 327.4,389.4 			"/>
		</g>
		<polygon class="st1" points="164.9,251 164.9,274.5 203.8,293.1 228.2,281.3 		"/>
		<polygon class="st2" points="164.9,187 164.9,210.4 207.4,230.7 231.8,219 		"/>
		<g>
			<polygon class="st3" points="327.4,389.4 327.4,412.8 489.9,335.1 489.9,311.7 			"/>
		</g>
		<g>
			<polygon class="st1" points="451,293.1 327.4,352.2 203.8,293.1 164.9,311.7 327.4,389.4 489.9,311.7 			"/>
		</g>
		<g>
			<polygon class="st4" points="228.2,281.3 203.8,293.1 327.4,352.2 327.4,328.8 			"/>
		</g>
		<polygon class="st3" points="426.5,281.3 451,293.1 489.9,274.5 489.9,251 		"/>
		<polygon class="st5" points="426.5,281.3 327.4,328.8 327.4,352.2 451,293.1 		"/>
		<g>
			<polygon class="st4" points="447.4,230.7 384.1,261 426.5,281.3 489.9,251 			"/>
		</g>
		<g>
			<polygon class="st4" points="207.4,230.7 164.9,251 228.2,281.3 270.7,261 			"/>
		</g>
		<g>
			<polygon class="st1" points="231.8,219 207.4,230.7 270.7,261 295.2,249.3 			"/>
		</g>
		<g>
			<polygon class="st0" points="384.1,261 327.4,288.1 270.7,261 228.2,281.3 327.4,328.8 426.5,281.3 			"/>
		</g>
		<g>
			<polygon class="st4" points="295.2,249.3 270.7,261 327.4,288.1 327.4,264.7 			"/>
		</g>
		<polygon class="st6" points="422.9,219 447.4,230.7 489.9,210.4 489.9,187 		"/>
		<polygon class="st3" points="422.9,219 359.6,249.3 384.1,261 447.4,230.7 		"/>
		<polygon class="st5" points="359.6,249.3 327.4,264.7 327.4,288.1 384.1,261 		"/>
		<g>
			<polygon class="st1" points="327.4,109.2 164.9,187 231.8,219 327.4,173.3 422.9,219 489.9,187 			"/>
		</g>
		<g>
			<polygon class="st4" points="327.4,173.3 231.8,219 295.2,249.3 327.4,233.9 359.6,249.3 422.9,219 			"/>
		</g>
		<g>
			<polygon class="st0" points="327.4,233.9 295.2,249.3 327.4,264.7 359.6,249.3 			"/>
		</g>
	</g>
</g>
</svg>
