<?xml version="1.0" encoding="utf-8"?>
<!-- Generator: Adobe Illustrator 19.2.0, SVG Export Plug-In . SVG Version: 6.00 Build 0)  -->
<svg version="1.1" id="Layer_1" xmlns="http://www.w3.org/2000/svg" xmlns:xlink="http://www.w3.org/1999/xlink" x="0px" y="0px"
	 viewBox="0 0 2400 524.6" style="enable-background:new 0 0 2400 524.6;" xml:space="preserve">
<metadata><?xpacket begin="﻿" id="W5M0MpCehiHzreSzNTczkc9d"?>
<x:xmpmeta xmlns:x="adobe:ns:meta/" x:xmptk="Adobe XMP Core 5.6-c111 79.158366, 2015/09/25-01:12:00        ">
   <rdf:RDF xmlns:rdf="http://www.w3.org/1999/02/22-rdf-syntax-ns#">
      <rdf:Description rdf:about=""/>
   </rdf:RDF>
</x:xmpmeta>
                                                                                                    
                                                                                                    
                                                                                                    
                                                                                                    
                                                                                                    
                                                                                                    
                                                                                                    
                                                                                                    
                                                                                                    
                                                                                                    
                                                                                                    
                                                                                                    
                                                                                                    
                                                                                                    
                                                                                                    
                                                                                                    
                                                                                                    
                                                                                                    
                                                                                                    
                                                                                                    
                           
<?xpacket end="w"?></metadata>
<style type="text/css">
	.st0{fill:#FFFFFF;}
</style>
<g>
	<g>
		<path class="st0" d="M592.4,192.7h42.7c7.7,0,14.6,0.8,20.9,2.4c6.3,1.6,11.6,4.1,16.1,7.3c4.5,3.3,7.9,7.4,10.3,12.4
			c2.4,5,3.6,10.8,3.6,17.5c0,6.7-1.2,12.5-3.7,17.5c-2.5,5-6,9.1-10.5,12.4c-4.5,3.3-9.9,5.8-16.2,7.4c-6.3,1.7-13.3,2.5-21,2.5
			h-26.9v68.9h-15.4V192.7z M607.8,259.3h26c12.1,0,21.3-2.3,27.5-6.9c6.3-4.6,9.4-11.3,9.4-20.1c0-9.2-3.2-15.9-9.7-20.2
			c-6.5-4.3-15.5-6.4-27.2-6.4h-26V259.3z"/>
		<path class="st0" d="M740,327.5h70.4v13.4h-85.8V192.7H740V327.5z"/>
		<path class="st0" d="M853.8,340.9h-16.9l65.3-148.2h14.9L982,340.9h-17.1L948.3,302h-78.1L853.8,340.9z M875.9,288.2h66.6
			l-33.3-78.7L875.9,288.2z"/>
		<path class="st0" d="M1056.9,340.9h-15.4V206.1h-50.6v-13.4h116.5v13.4h-50.6V340.9z"/>
		<path class="st0" d="M1162.5,340.9h-15.4V192.7h91.1v13.4h-75.7v51.3h70.4v13.4h-70.4V340.9z"/>
		<path class="st0" d="M1429.2,266.8c0,11.3-2,21.7-6,31.2c-4,9.5-9.5,17.7-16.5,24.6c-7,6.9-15.4,12.3-25,16.2
			c-9.6,3.9-20,5.9-31.3,5.9c-11.2,0-21.7-2-31.3-5.9c-9.6-3.9-17.9-9.3-25-16.2c-7-6.9-12.6-15.1-16.5-24.6c-4-9.5-6-19.9-6-31.2
			c0-11.3,2-21.7,6-31.2c4-9.5,9.5-17.7,16.5-24.6c7-6.9,15.4-12.3,25-16.2c9.6-3.9,20-5.9,31.3-5.9c11.2,0,21.7,2,31.3,5.9
			c9.6,3.9,17.9,9.3,25,16.2c7,6.9,12.6,15.1,16.5,24.6C1427.2,245.1,1429.2,255.5,1429.2,266.8z M1413,266.9
			c0-8.6-1.4-16.9-4.3-24.7c-2.8-7.8-7-14.7-12.4-20.6c-5.4-5.9-12-10.6-19.7-14.1c-7.8-3.5-16.5-5.2-26.1-5.2
			c-9.7,0-18.4,1.7-26.1,5.2c-7.8,3.5-14.3,8.2-19.7,14.1c-5.4,5.9-9.5,12.8-12.4,20.6c-2.8,7.8-4.3,16-4.3,24.7
			c0,8.6,1.4,16.9,4.3,24.7c2.8,7.8,7,14.6,12.4,20.5c5.4,5.9,12,10.5,19.7,14c7.8,3.5,16.5,5.2,26.1,5.2c9.7,0,18.4-1.7,26.1-5.2
			c7.8-3.5,14.3-8.2,19.7-14c5.4-5.9,9.5-12.7,12.4-20.5C1411.6,283.8,1413,275.6,1413,266.9z"/>
		<path class="st0" d="M1489.4,340.9H1474V192.7h44.4c7.4,0,14.3,0.7,20.6,2.1c6.3,1.4,11.8,3.7,16.4,6.8c4.6,3.1,8.2,7.2,10.8,12.2
			c2.6,5,3.8,11.2,3.8,18.4c0,5.4-1,10.4-3,14.9c-2,4.5-4.7,8.3-8.1,11.6c-3.4,3.3-7.5,5.9-12.2,7.9c-4.7,2-9.8,3.2-15.4,3.8
			l44.2,70.6h-18.8l-41.8-69.3h-25.6V340.9z M1489.4,258.6h26.7c12.4,0,21.9-2.2,28.6-6.6c6.7-4.4,10-11,10-19.8
			c0-4.9-0.9-9-2.8-12.4c-1.9-3.4-4.4-6.1-7.7-8.2c-3.3-2.1-7.3-3.6-11.9-4.6c-4.7-1-9.9-1.5-15.6-1.5h-27.3V258.6z"/>
		<path class="st0" d="M1697.8,315.4h0.2l50.6-122.7h23.5v148.2h-15.4V212.2h-0.4l-54.6,128.8h-8.1l-54.6-128.8h-0.4v128.8h-15.4
			V192.7h23.5L1697.8,315.4z"/>
		<path class="st0" d="M1844.6,327.5h70.4v13.4h-85.8V192.7h15.4V327.5z"/>
		<path class="st0" d="M1958.3,340.9h-16.9l65.3-148.2h14.9l64.9,148.2h-17.1l-16.6-38.9h-78.1L1958.3,340.9z M1980.5,288.2h66.6
			l-33.3-78.7L1980.5,288.2z"/>
		<path class="st0" d="M2130.1,192.7h45c5.7,0,11.4,0.6,17.3,1.8c5.8,1.2,11.1,3.2,15.7,6.1c4.6,2.9,8.4,6.7,11.3,11.6
			c2.9,4.9,4.4,11,4.4,18.4c0,7.8-2.4,14.6-7.3,20.4c-4.9,5.8-11.4,9.6-19.5,11.4v0.4c9.8,1.1,17.9,4.9,24.4,11.2
			c6.5,6.4,9.7,15,9.7,25.9c0,6.1-1.3,11.8-3.9,16.9c-2.6,5.1-6.4,9.4-11.2,13c-4.8,3.6-10.7,6.3-17.7,8.3c-7,2-14.8,2.9-23.4,2.9
			h-44.7V192.7z M2145.4,257.6h30.9c3.7,0,7.4-0.4,11.2-1.3c3.8-0.8,7.2-2.3,10.3-4.3c3.1-2,5.7-4.7,7.6-8.1
			c1.9-3.3,2.9-7.5,2.9-12.4c0-4.7-1-8.8-2.9-12c-1.9-3.3-4.5-6-7.8-8.1c-3.3-2.1-7.1-3.6-11.5-4.5c-4.4-0.9-9.1-1.4-14.1-1.4h-26.7
			V257.6z M2145.4,328h28.6c5.5,0,10.8-0.5,15.9-1.6c5-1,9.5-2.7,13.2-5c3.8-2.3,6.8-5.3,9.1-9c2.3-3.7,3.4-8.1,3.4-13.3
			c0-9.8-3.4-17.1-10.1-21.9c-6.8-4.8-16.3-7.2-28.7-7.2h-31.4V328z"/>
	</g>
	<g>
		<g>
			<polygon class="st0" points="327.4,387 164.9,310.7 164.9,333.7 327.4,410 489.9,333.7 489.9,310.7 			"/>
		</g>
		<g>
			<polygon class="st0" points="469,300.9 451,309.4 327.4,367.4 203.8,309.4 185.8,300.9 164.9,310.7 327.4,387 489.9,310.7 			"/>
		</g>
		<g>
			<polygon class="st0" points="327.4,350.5 451,292.5 489.9,274.2 489.9,251.2 465.4,239.7 447.4,248.2 384.1,277.9 327.4,304.6 
				270.7,277.9 207.4,248.2 189.4,239.7 164.9,251.2 164.9,274.2 203.8,292.5 			"/>
		</g>
		<g>
			<polygon class="st0" points="270.7,261 327.4,287.6 384.1,261 447.4,231.3 489.9,211.3 489.9,188.3 327.4,112 164.9,188.3 
				164.9,211.3 207.4,231.3 			"/>
		</g>
	</g>
</g>
</svg>
