<?xml version="1.0" encoding="utf-8"?>
<!-- Generator: Adobe Illustrator 19.2.0, SVG Export Plug-In . SVG Version: 6.00 Build 0)  -->
<svg version="1.1" id="Layer_1" xmlns="http://www.w3.org/2000/svg" xmlns:xlink="http://www.w3.org/1999/xlink" x="0px" y="0px"
	 viewBox="0 0 2400 524.6" style="enable-background:new 0 0 2400 524.6;" xml:space="preserve">
<metadata><?xpacket begin="﻿" id="W5M0MpCehiHzreSzNTczkc9d"?>
<x:xmpmeta xmlns:x="adobe:ns:meta/" x:xmptk="Adobe XMP Core 5.6-c111 79.158366, 2015/09/25-01:12:00        ">
   <rdf:RDF xmlns:rdf="http://www.w3.org/1999/02/22-rdf-syntax-ns#">
      <rdf:Description rdf:about=""/>
   </rdf:RDF>
</x:xmpmeta>
                                                                                                    
                                                                                                    
                                                                                                    
                                                                                                    
                                                                                                    
                                                                                                    
                                                                                                    
                                                                                                    
                                                                                                    
                                                                                                    
                                                                                                    
                                                                                                    
                                                                                                    
                                                                                                    
                                                                                                    
                                                                                                    
                                                                                                    
                                                                                                    
                                                                                                    
                                                                                                    
                           
<?xpacket end="w"?></metadata>
<style type="text/css">
	.st0{fill:#CCCCCC;}
	.st1{fill:#999999;}
	.st2{fill:#44CFE3;}
	.st3{fill:#75D071;}
	.st4{fill:#008BFF;}
	.st5{fill:#36A6B6;}
	.st6{fill:#69D9E9;}
	.st7{fill:#91D98D;}
	.st8{fill:#5EA65A;}
	.st9{fill:#74AE71;}
	.st10{fill:#33A2FF;}
	.st11{fill:#A7E1A4;}
	.st12{fill:#5CB5FF;}
	.st13{fill:#006FCC;}
	.st14{fill:#2982CC;}
	.st15{fill:#4A91CC;}
	.st16{fill:#7DC4FF;}
</style>
<g>
	<g>
		<path class="st0" d="M594.4,192.4h42.7c7.7,0,14.6,0.8,20.9,2.5c6.3,1.6,11.6,4.1,16.1,7.5c4.5,3.3,7.9,7.5,10.3,12.6
			c2.4,5.1,3.6,11,3.6,17.8c0,6.8-1.2,12.8-3.7,17.8c-2.5,5.1-6,9.2-10.5,12.6c-4.5,3.3-9.9,5.9-16.2,7.6c-6.3,1.7-13.3,2.6-21,2.6
			h-26.9v70.2h-15.4V192.4z M609.8,260.2h26c12.1,0,21.3-2.3,27.5-7c6.3-4.7,9.4-11.5,9.4-20.5c0-9.4-3.2-16.2-9.7-20.6
			c-6.5-4.3-15.5-6.5-27.2-6.5h-26V260.2z"/>
		<path class="st0" d="M742,329.8h70.4v13.7h-85.8V192.4H742V329.8z"/>
		<path class="st0" d="M855.8,343.5h-16.9l65.3-151.1h14.9L984,343.5h-17.1l-16.6-39.7h-78.1L855.8,343.5z M877.9,289.7h66.6
			l-33.3-80.2L877.9,289.7z"/>
		<path class="st0" d="M1058.9,343.5h-15.4V206h-50.6v-13.7h116.5V206h-50.6V343.5z"/>
		<path class="st0" d="M1164.5,343.5h-15.4V192.4h91.1V206h-75.7v52.3h70.4V272h-70.4V343.5z"/>
		<path class="st0" d="M1431.2,267.9c0,11.5-2,22.1-6,31.8c-4,9.7-9.5,18-16.5,25.1c-7,7-15.4,12.6-25,16.5c-9.6,4-20,6-31.3,6
			c-11.2,0-21.7-2-31.3-6c-9.6-4-17.9-9.5-25-16.5c-7-7-12.6-15.4-16.5-25.1c-4-9.7-6-20.3-6-31.8c0-11.5,2-22.1,6-31.8
			c4-9.7,9.5-18,16.5-25.1c7-7,15.4-12.6,25-16.5c9.6-4,20-6,31.3-6c11.2,0,21.7,2,31.3,6c9.6,4,17.9,9.5,25,16.5
			c7,7,12.6,15.4,16.5,25.1C1429.2,245.8,1431.2,256.4,1431.2,267.9z M1415,268c0-8.8-1.4-17.2-4.3-25.1c-2.8-7.9-7-14.9-12.4-21
			c-5.4-6-12-10.8-19.7-14.4c-7.8-3.6-16.5-5.3-26.1-5.3s-18.4,1.8-26.1,5.3c-7.8,3.6-14.3,8.3-19.7,14.4c-5.4,6-9.5,13-12.4,21
			c-2.8,8-4.3,16.3-4.3,25.1c0,8.8,1.4,17.2,4.3,25.1c2.8,8,7,14.9,12.4,20.9c5.4,6,12,10.7,19.7,14.3c7.8,3.6,16.5,5.3,26.1,5.3
			s18.4-1.8,26.1-5.3c7.8-3.6,14.3-8.3,19.7-14.3c5.4-6,9.5-12.9,12.4-20.9C1413.6,285.2,1415,276.8,1415,268z"/>
		<path class="st0" d="M1491.4,343.5H1476V192.4h44.4c7.4,0,14.3,0.7,20.6,2.1c6.3,1.4,11.8,3.7,16.4,6.9c4.6,3.2,8.2,7.4,10.8,12.5
			s3.8,11.4,3.8,18.8c0,5.5-1,10.6-3,15.1c-2,4.6-4.7,8.5-8.1,11.8c-3.4,3.3-7.5,6-12.2,8c-4.7,2-9.8,3.3-15.4,3.8l44.2,71.9h-18.8
			l-41.8-70.6h-25.6V343.5z M1491.4,259.6h26.7c12.4,0,21.9-2.2,28.6-6.7c6.7-4.5,10-11.2,10-20.2c0-5-0.9-9.2-2.8-12.6
			c-1.9-3.4-4.4-6.2-7.7-8.3c-3.3-2.1-7.3-3.7-11.9-4.7c-4.7-1-9.9-1.5-15.6-1.5h-27.3V259.6z"/>
		<path class="st0" d="M1699.8,317.4h0.2l50.6-125h23.5v151.1h-15.4V212.2h-0.4l-54.6,131.2h-8.1l-54.6-131.2h-0.4v131.2h-15.4
			V192.4h23.5L1699.8,317.4z"/>
		<path class="st1" d="M1846.6,329.8h70.4v13.7h-85.8V192.4h15.4V329.8z"/>
		<path class="st1" d="M1960.3,343.5h-16.9l65.3-151.1h14.9l64.9,151.1h-17.1l-16.6-39.7h-78.1L1960.3,343.5z M1982.5,289.7h66.6
			l-33.3-80.2L1982.5,289.7z"/>
		<path class="st1" d="M2132.1,192.4h45c5.7,0,11.4,0.6,17.3,1.8c5.8,1.2,11.1,3.3,15.7,6.2c4.6,2.9,8.4,6.9,11.3,11.8
			c2.9,5,4.4,11.2,4.4,18.8c0,8-2.4,14.9-7.3,20.8c-4.9,5.9-11.4,9.8-19.5,11.6v0.4c9.8,1.1,17.9,4.9,24.4,11.4
			c6.5,6.5,9.7,15.3,9.7,26.4c0,6.3-1.3,12-3.9,17.2c-2.6,5.2-6.4,9.6-11.2,13.2c-4.8,3.6-10.7,6.4-17.7,8.4c-7,2-14.8,3-23.4,3
			h-44.7V192.4z M2147.4,258.5h30.9c3.7,0,7.4-0.4,11.2-1.3c3.8-0.9,7.2-2.3,10.3-4.4c3.1-2.1,5.7-4.8,7.6-8.2
			c1.9-3.4,2.9-7.6,2.9-12.6c0-4.8-1-8.9-2.9-12.3c-1.9-3.3-4.5-6.1-7.8-8.2c-3.3-2.1-7.1-3.7-11.5-4.6c-4.4-0.9-9.1-1.4-14.1-1.4
			h-26.7V258.5z M2147.4,330.2h28.6c5.5,0,10.8-0.5,15.9-1.6c5-1.1,9.5-2.8,13.2-5.1c3.8-2.3,6.8-5.4,9.1-9.2
			c2.3-3.8,3.4-8.3,3.4-13.6c0-10-3.4-17.4-10.1-22.3c-6.8-4.9-16.3-7.4-28.7-7.4h-31.4V330.2z"/>
	</g>
	<g>
		<g>
			<polygon class="st2" points="166.9,312.7 166.9,336.1 329.4,413.8 329.4,390.4 			"/>
		</g>
		<polygon class="st3" points="166.9,252 166.9,275.5 205.8,294.1 230.2,282.3 		"/>
		<polygon class="st4" points="166.9,188 166.9,211.4 209.4,231.7 233.8,220 		"/>
		<g>
			<polygon class="st5" points="329.4,390.4 329.4,413.8 491.9,336.1 491.9,312.7 			"/>
		</g>
		<g>
			<polygon class="st6" points="453,294.1 329.4,353.2 205.8,294.1 166.9,312.7 329.4,390.4 491.9,312.7 			"/>
		</g>
		<g>
			<polygon class="st7" points="230.2,282.3 205.8,294.1 329.4,353.2 329.4,329.8 			"/>
		</g>
		<polygon class="st8" points="428.5,282.3 453,294.1 491.9,275.5 491.9,252 		"/>
		<polygon class="st9" points="428.5,282.3 329.4,329.8 329.4,353.2 453,294.1 		"/>
		<g>
			<polygon class="st7" points="449.4,231.7 386.1,262 428.5,282.3 491.9,252 			"/>
		</g>
		<g>
			<polygon class="st7" points="209.4,231.7 166.9,252 230.2,282.3 272.7,262 			"/>
		</g>
		<g>
			<polygon class="st10" points="233.8,220 209.4,231.7 272.7,262 297.2,250.3 			"/>
		</g>
		<g>
			<polygon class="st11" points="386.1,262 329.4,289.1 272.7,262 230.2,282.3 329.4,329.8 428.5,282.3 			"/>
		</g>
		<g>
			<polygon class="st12" points="297.2,250.3 272.7,262 329.4,289.1 329.4,265.7 			"/>
		</g>
		<polygon class="st13" points="424.9,220 449.4,231.7 491.9,211.4 491.9,188 		"/>
		<polygon class="st14" points="424.9,220 361.6,250.3 386.1,262 449.4,231.7 		"/>
		<polygon class="st15" points="361.6,250.3 329.4,265.7 329.4,289.1 386.1,262 		"/>
		<g>
			<polygon class="st10" points="329.4,110.2 166.9,188 233.8,220 329.4,174.3 424.9,220 491.9,188 			"/>
		</g>
		<g>
			<polygon class="st12" points="329.4,174.3 233.8,220 297.2,250.3 329.4,234.9 361.6,250.3 424.9,220 			"/>
		</g>
		<g>
			<polygon class="st16" points="329.4,234.9 297.2,250.3 329.4,265.7 361.6,250.3 			"/>
		</g>
	</g>
</g>
</svg>
