<?xml version="1.0" encoding="utf-8"?>
<!-- Generator: Adobe Illustrator 19.2.0, SVG Export Plug-In . SVG Version: 6.00 Build 0)  -->
<svg version="1.1" id="Layer_1" xmlns="http://www.w3.org/2000/svg" xmlns:xlink="http://www.w3.org/1999/xlink" x="0px" y="0px"
	 viewBox="0 0 2400 2400" style="enable-background:new 0 0 2400 2400;" xml:space="preserve">
<metadata><?xpacket begin="﻿" id="W5M0MpCehiHzreSzNTczkc9d"?>
<x:xmpmeta xmlns:x="adobe:ns:meta/" x:xmptk="Adobe XMP Core 5.6-c111 79.158366, 2015/09/25-01:12:00        ">
   <rdf:RDF xmlns:rdf="http://www.w3.org/1999/02/22-rdf-syntax-ns#">
      <rdf:Description rdf:about=""/>
   </rdf:RDF>
</x:xmpmeta>
                                                                                                    
                                                                                                    
                                                                                                    
                                                                                                    
                                                                                                    
                                                                                                    
                                                                                                    
                                                                                                    
                                                                                                    
                                                                                                    
                                                                                                    
                                                                                                    
                                                                                                    
                                                                                                    
                                                                                                    
                                                                                                    
                                                                                                    
                                                                                                    
                                                                                                    
                                                                                                    
                           
<?xpacket end="w"?></metadata>
<style type="text/css">
	.st0{fill:#44CFE3;}
	.st1{fill:#75D071;}
	.st2{fill:#008BFF;}
	.st3{fill:#36A6B6;}
	.st4{fill:#69D9E9;}
	.st5{fill:#91D98D;}
	.st6{fill:#5EA65A;}
	.st7{fill:#74AE71;}
	.st8{fill:#33A2FF;}
	.st9{fill:#A7E1A4;}
	.st10{fill:#5CB5FF;}
	.st11{fill:#006FCC;}
	.st12{fill:#2982CC;}
	.st13{fill:#4A91CC;}
	.st14{fill:#7DC4FF;}
</style>
<g>
	<g>
		<polygon class="st0" points="200,1511.4 200,1655.5 1200,2134.2 1200,1990 		"/>
	</g>
	<polygon class="st1" points="200,1138.2 200,1282.4 439.2,1396.9 589.8,1324.8 	"/>
	<polygon class="st2" points="200,743.9 200,888 461.4,1013.1 612,941.1 	"/>
	<g>
		<polygon class="st3" points="1200,1990 1200,2134.2 2200,1655.5 2200,1511.4 		"/>
	</g>
	<g>
		<polygon class="st4" points="1960.8,1396.9 1200,1761 439.2,1396.9 200,1511.4 1200,1990 2200,1511.4 		"/>
	</g>
	<g>
		<polygon class="st5" points="589.8,1324.8 439.2,1396.9 1200,1761 1200,1616.9 		"/>
	</g>
	<polygon class="st6" points="1810.2,1324.8 1960.8,1396.9 2200,1282.4 2200,1138.2 	"/>
	<polygon class="st7" points="1810.2,1324.8 1200,1616.9 1200,1761 1960.8,1396.9 	"/>
	<g>
		<polygon class="st5" points="1938.6,1013.1 1548.8,1199.7 1810.2,1324.8 2200,1138.2 		"/>
	</g>
	<g>
		<polygon class="st5" points="461.4,1013.1 200,1138.2 589.8,1324.8 851.2,1199.7 		"/>
	</g>
	<g>
		<polygon class="st8" points="612,941.1 461.4,1013.1 851.2,1199.7 1001.8,1127.6 		"/>
	</g>
	<g>
		<polygon class="st9" points="1548.8,1199.7 1200,1366.7 851.2,1199.7 589.8,1324.8 1200,1616.9 1810.2,1324.8 		"/>
	</g>
	<g>
		<polygon class="st10" points="1001.8,1127.6 851.2,1199.7 1200,1366.7 1200,1222.5 		"/>
	</g>
	<polygon class="st11" points="1788,941.1 1938.6,1013.1 2200,888 2200,743.9 	"/>
	<polygon class="st12" points="1788,941.1 1398.2,1127.6 1548.8,1199.7 1938.6,1013.1 	"/>
	<polygon class="st13" points="1398.2,1127.6 1200,1222.5 1200,1366.7 1548.8,1199.7 	"/>
	<g>
		<polygon class="st8" points="1200,265.3 200,743.9 612,941.1 1200,659.6 1788,941.1 2200,743.9 		"/>
	</g>
	<g>
		<polygon class="st10" points="1200,659.6 612,941.1 1001.8,1127.6 1200,1032.8 1398.2,1127.6 1788,941.1 		"/>
	</g>
	<g>
		<polygon class="st14" points="1200,1032.8 1001.8,1127.6 1200,1222.5 1398.2,1127.6 		"/>
	</g>
</g>
</svg>
